<svg xmlns="http://www.w3.org/2000/svg" width="185" height="185" fill="none" viewBox="0 0 185 185"><path fill="url(#a)" d="M0 92.5C0 41.414 41.414 0 92.5 0H135c27.614 0 50 22.386 50 50v42.5c0 51.086-41.414 92.5-92.5 92.5S0 143.586 0 92.5"/><path fill="#000" fill-opacity=".86" d="m137.109 88.36.141.35v.845q0 .28-.141.28h-.281q0 .142-.14.282-.282 0-.493.492-.14.493-.422 1.266-.703 1.125-1.335 3.164-.633 1.97-1.688 4.57-2.039 5.204-4.711 13.008a9.6 9.6 0 0 1-.703 1.969 13 13 0 0 0-.633 2.039 7.6 7.6 0 0 0-.914 1.969l-.773 2.32a15.5 15.5 0 0 1-.844 1.969q-.492 1.055-.914 2.39a9.7 9.7 0 0 0-.985 1.969 31 31 0 0 1-1.054 2.32l-.985 2.04q-.28.702-.773 1.265a6.6 6.6 0 0 0-.773 1.055l-.563.562a5 5 0 0 1-.492.563l-.281.562h-.422q0 .141-.141.282h-.281q-.141 0-.141.562h-2.179q-.282 0-.282-.281t-.14-.281q-.281 0-.422-.141t-.422-.141l-.774-1.406q0-.281-.07-.351t-.351-.563q0-.281-.071-.562a2.3 2.3 0 0 1-.07-.563q-.282 0-.281-.562v-.282q-.141 0-.141-.281v-1.125q0-.07-.281-.352v-5.765a5.8 5.8 0 0 0 .281-1.828q0-1.054.141-1.899.28-1.758.351-3.304a27 27 0 0 1 .352-3.305 140 140 0 0 1 1.758-13.008q.281-3.304.703-6.61.422-3.304.984-6.609.282-3.305.703-6.75.492-3.444.774-6.75.28-3.444.492-6.75.21-3.375.211-7.101 0-3.305-.211-6.328-.212-3.024-.633-5.203a23 23 0 0 0-.633-2.32 6.5 6.5 0 0 0-.984-1.97q-.844-1.264-2.531-2.601h-.914q0-.282-.071-.281t-.07-.14v-.142h-4.148q-.14 0-.352.282-.212.28-.492.28-.422 0-.914.282h-.844q-.14.422-.352.492-.21.07-.492.352-.563 0-.914.562-.141 0-.351.141a.87.87 0 0 1-.493.14l-.773.774a37 37 0 0 1-.914.703 4.2 4.2 0 0 0-.844.774 5.8 5.8 0 0 1-.914.984 217 217 0 0 0-3.234 3.305 29 29 0 0 0-2.953 3.867 33 33 0 0 0-2.954 4.43 222 222 0 0 0-2.53 4.78q-1.267 2.18-2.602 4.642-1.266 2.39-2.602 4.851a399 399 0 0 0-2.32 4.57q-1.125 2.32-2.39 4.36-1.125 2.46-2.25 4.5a483 483 0 0 1-2.25 4.148 79 79 0 0 1-2.321 3.938 240 240 0 0 1-2.25 3.586q-2.18 4.148-4.078 7.171a7.8 7.8 0 0 0-.985 1.618 8.7 8.7 0 0 1-.984 1.547 7.3 7.3 0 0 1-.773 1.617q-.423.702-.985 1.828a866 866 0 0 0-3.234 5.344 52 52 0 0 1-2.953 4.429q-1.266 2.462-2.18 4.008a57 57 0 0 0-1.688 2.672q-.562.703-.773.984a4.6 4.6 0 0 0-.562.703l-.282.282q-.281 1.125-.562 0v-.985q0-.14.07-.281.07-.14.07-.422.14-.141.844-2.601.562-1.266 1.266-3.446.632-2.18 1.617-5.203l2.18-5.765q1.264-3.165 2.742-6.61.28-1.125.773-1.969a8.6 8.6 0 0 0 .774-2.109l.914-1.687q.14-.704.351-.985.21-.351.492-1.054 1.407-3.868 3.868-7.735.984-2.46 1.898-4.5a71 71 0 0 1 2.18-4.148q1.125-2.04 2.39-4.149 1.336-2.18 2.602-4.218a44 44 0 0 1 2.672-4.079 174 174 0 0 1 2.953-4.007 169 169 0 0 1 2.953-3.586 279 279 0 0 0 3.094-3.867 112 112 0 0 0 3.234-3.376q1.687-1.827 3.235-3.515A35 35 0 0 1 94.5 45.96a227 227 0 0 0 3.445-3.375q1.617-2.04 3.375-3.516a40 40 0 0 1 3.797-2.812q.14 0 .352-.281.21-.282.492-.282a.87.87 0 0 0 .492-.14 1.25 1.25 0 0 1 .563-.14q.28-.564.843-.563.423-.282 1.125-.282.423-.562 1.055-.633l1.125-.28h2.18q.984 0 2.109.632 1.195.563 2.32 1.406.985 1.266 2.039 3.164.422.845.915 1.899.492.984.843 1.828.282 1.125.563 2.11.28.913.422 2.25.28 1.125.492 2.038.212.845.351 1.97.282 2.178.493 4.429.21 2.18.211 4.219.14 2.18.14 4.148v3.938a56 56 0 0 0-.14 3.867 28 28 0 0 1-.282 3.867 211 211 0 0 1-.422 7.734q-.281 3.797-.562 7.524-.281 3.445-.774 7.03a207 207 0 0 0-.843 6.821q-.422 2.883-.774 5.485a223 223 0 0 0-.633 5.132q.282-1.406.985-1.968.984-2.04 1.828-3.657a47 47 0 0 1 1.969-3.304 143 143 0 0 1 3.164-5.625 101 101 0 0 1 2.883-4.711q1.265-2.46 2.32-3.938a224 224 0 0 1 1.969-2.672q.422-.281.773-.562.352-.352.633-.352h.773m-22.078 34.312h-.281zm-.281 0h-.141z"/><defs><linearGradient id="a" x1="0" x2="185" y1="92" y2="92" gradientUnits="userSpaceOnUse"><stop stop-color="#FFDB6E"/><stop offset="1" stop-color="#FFBC5E"/></linearGradient></defs></svg>